<?xml version="1.0" standalone="no"?>
<!DOCTYPE svg PUBLIC "-//W3C//DTD SVG 20010904//EN"
 "http://www.w3.org/TR/2001/REC-SVG-20010904/DTD/svg10.dtd">
<svg version="1.0" xmlns="http://www.w3.org/2000/svg"
 width="512.000000pt" height="512.000000pt" viewBox="0 0 512.000000 512.000000"
 preserveAspectRatio="xMidYMid meet">
<metadata>
Created by potrace 1.14, written by Peter Selinger 2001-2017
</metadata>
<g transform="translate(0.000000,512.000000) scale(0.100000,-0.100000)"
fill="#000000" stroke="none">
<path d="M415 5099 c-79 -27 -153 -84 -198 -152 -72 -109 -68 73 -65 -2413 3
-2183 3 -2240 22 -2284 48 -112 132 -192 241 -229 60 -20 73 -20 1751 -21
1878 0 1743 -5 1851 67 63 42 104 91 141 170 l27 58 3 476 c3 471 3 475 -18
502 -12 15 -28 27 -36 27 -8 0 -14 6 -15 13 0 6 -1 53 -2 102 l-2 90 404 405
c296 297 409 417 425 450 29 64 28 170 -3 229 -31 59 -207 232 -263 258 -58
28 -121 33 -183 15 -65 -18 -84 -34 -240 -190 -71 -72 -132 -129 -135 -127 -3
2 -4 43 -4 91 1 63 6 90 15 93 7 2 23 14 36 27 l23 23 -3 1018 c-1 560 -5
1028 -9 1039 -26 87 -97 179 -173 226 -100 62 27 58 -1834 58 -1683 -1 -1696
-1 -1756 -21z"/>
</g>
</svg>
